name ./resultDataOpenSim/trcMotMarkerGrf/sub06/grf-05-05.mot
datacolumns 19
datarows 15
range 0.50400000 0.56000000
endheader

                time	     ground_force_vx	     ground_force_vy	     ground_force_vz	     ground_force_px	     ground_force_py	     ground_force_pz	   l_ground_force_vx	   l_ground_force_vy	   l_ground_force_vz	   l_ground_force_px	   l_ground_force_py	   l_ground_force_pz	     ground_torque_x	     ground_torque_y	     ground_torque_z	   l_ground_torque_x	   l_ground_torque_y	   l_ground_torque_z	
          0.50400000	         38.43497163	        350.92027466	        -19.51198704	         -0.82492340	          0.00000000	          0.09240138	          0.00000000	          0.00000000	          0.00000000	          0.00000000	          0.00000000	          0.00000000	          0.00000000	          0.30899409	          0.00000000	          0.00000000	          0.00000000	          0.00000000	
          0.50800000	         42.81981651	        367.45864153	        -18.29961643	         -0.82477302	          0.00000000	          0.09159939	          0.00000000	          0.00000000	          0.00000000	          0.00000000	          0.00000000	          0.00000000	          0.00000000	          0.40939590	          0.00000000	          0.00000000	          0.00000000	          0.00000000	
          0.51200000	         47.64543075	        383.53508305	        -17.46191477	         -0.82472206	          0.00000000	          0.09081038	          0.00000000	          0.00000000	          0.00000000	          0.00000000	          0.00000000	          0.00000000	          0.00000000	          0.50327352	          0.00000000	          0.00000000	          0.00000000	          0.00000000	
          0.51600000	         52.79009744	        399.16113664	        -16.86079613	         -0.82472163	          0.00000000	          0.09004903	          0.00000000	          0.00000000	          0.00000000	          0.00000000	          0.00000000	          0.00000000	          0.00000000	          0.59800178	          0.00000000	          0.00000000	          0.00000000	          0.00000000	
          0.52000000	         58.16817352	        414.40083419	        -16.29040757	         -0.82474376	          0.00000000	          0.08933127	          0.00000000	          0.00000000	          0.00000000	          0.00000000	          0.00000000	          0.00000000	          0.00000000	          0.70298158	          0.00000000	          0.00000000	          0.00000000	          0.00000000	
          0.52400000	         63.75108479	        429.37990148	        -15.53853923	         -0.82478563	          0.00000000	          0.08866703	          0.00000000	          0.00000000	          0.00000000	          0.00000000	          0.00000000	          0.00000000	          0.00000000	          0.82634405	          0.00000000	          0.00000000	          0.00000000	          0.00000000	
          0.52800000	         69.57358263	        444.26875940	        -14.44401207	         -0.82485622	          0.00000000	          0.08805919	          0.00000000	          0.00000000	          0.00000000	          0.00000000	          0.00000000	          0.00000000	          0.00000000	          0.97195559	          0.00000000	          0.00000000	          0.00000000	          0.00000000	
          0.53200000	         75.72412569	        459.23894045	        -12.93884477	         -0.82496758	          0.00000000	          0.08750558	          0.00000000	          0.00000000	          0.00000000	          0.00000000	          0.00000000	          0.00000000	          0.00000000	          1.13733246	          0.00000000	          0.00000000	          0.00000000	          0.00000000	
          0.53600000	         82.32462853	        474.41969298	        -11.06818833	         -0.82513420	          0.00000000	          0.08700641	          0.00000000	          0.00000000	          0.00000000	          0.00000000	          0.00000000	          0.00000000	          0.00000000	          1.31293941	          0.00000000	          0.00000000	          0.00000000	          0.00000000	
          0.54000000	         89.50603202	        489.87303331	         -8.98335964	         -0.82536544	          0.00000000	          0.08656458	          0.00000000	          0.00000000	          0.00000000	          0.00000000	          0.00000000	          0.00000000	          0.00000000	          1.48311078	          0.00000000	          0.00000000	          0.00000000	          0.00000000	
          0.54400000	         97.38298804	        505.58716349	         -6.91033701	         -0.82566719	          0.00000000	          0.08618790	          0.00000000	          0.00000000	          0.00000000	          0.00000000	          0.00000000	          0.00000000	          0.00000000	          1.62849337	          0.00000000	          0.00000000	          0.00000000	          0.00000000	
          0.54800000	        106.02940952	        521.48568637	         -5.10465688	         -0.82604197	          0.00000000	          0.08588898	          0.00000000	          0.00000000	          0.00000000	          0.00000000	          0.00000000	          0.00000000	          0.00000000	          1.72952359	          0.00000000	          0.00000000	          0.00000000	          0.00000000	
          0.55200000	        115.45946249	        537.45187427	         -3.80369289	         -0.82648364	          0.00000000	          0.08567723	          0.00000000	          0.00000000	          0.00000000	          0.00000000	          0.00000000	          0.00000000	          0.00000000	          1.77012630	          0.00000000	          0.00000000	          0.00000000	          0.00000000	
          0.55600000	        125.62167415	        553.35809219	         -3.18160499	         -0.82697350	          0.00000000	          0.08555051	          0.00000000	          0.00000000	          0.00000000	          0.00000000	          0.00000000	          0.00000000	          0.00000000	          1.74070729	          0.00000000	          0.00000000	          0.00000000	          0.00000000	
          0.56000000	        136.40985933	        569.08317453	         -3.31258239	         -0.82748506	          0.00000000	          0.08549794	          0.00000000	          0.00000000	          0.00000000	          0.00000000	          0.00000000	          0.00000000	          0.00000000	          1.63971218	          0.00000000	          0.00000000	          0.00000000	          0.00000000	
